<svg xmlns="http://www.w3.org/2000/svg" width="1024" height="1024" viewBox="0 0 1024 1024" role="img" aria-label="Diagram 8 — Sideswipe (opposite direction)"><title>Diagram 8 — Sideswipe (opposite direction)</title><desc>Cars travelling in opposite directions clip each other's sides.</desc><defs><marker id="mh" viewBox="0 0 10 10" refX="8" refY="5" markerWidth="6.5" markerHeight="6.5" orient="auto-start-reverse"><path d="M2 1L8 5L2 9" fill="none" stroke="context-stroke" stroke-width="1.6" stroke-linecap="round" stroke-linejoin="round"/></marker></defs><rect x="0" y="0" width="1024" height="1024" fill="#FFFFFF"/><line x1="512" y1="40" x2="512" y2="984" stroke="#E2E0D7" stroke-width="5" stroke-dasharray="22 26" stroke-linecap="round"/><g transform="rotate(175 430 470)"><rect x="371.0" y="357.0" width="118" height="226" rx="34" fill="#F0997B" stroke="#993C1D" stroke-width="5"/><rect x="363.0" y="401.0" width="14" height="24" rx="6" fill="#993C1D"/><rect x="483.0" y="401.0" width="14" height="24" rx="6" fill="#993C1D"/><rect x="363.0" y="515.0" width="14" height="24" rx="6" fill="#993C1D"/><rect x="483.0" y="515.0" width="14" height="24" rx="6" fill="#993C1D"/><rect x="400.0" y="379.0" width="60" height="55.2" rx="14" fill="#FAECE7" stroke="#993C1D" stroke-width="3"/></g><g transform="rotate(5 600 560)"><rect x="541.0" y="447.0" width="118" height="226" rx="34" fill="#85B7EB" stroke="#185FA5" stroke-width="5"/><rect x="533.0" y="491.0" width="14" height="24" rx="6" fill="#185FA5"/><rect x="653.0" y="491.0" width="14" height="24" rx="6" fill="#185FA5"/><rect x="533.0" y="605.0" width="14" height="24" rx="6" fill="#185FA5"/><rect x="653.0" y="605.0" width="14" height="24" rx="6" fill="#185FA5"/><rect x="570.0" y="469.0" width="60" height="55.2" rx="14" fill="#E6F1FB" stroke="#185FA5" stroke-width="3"/></g><text x="430.0" y="320.0" text-anchor="middle" font-family="-apple-system, system-ui, sans-serif" font-size="40" font-weight="600" fill="#993C1D">A</text><text x="600.0" y="720.0" text-anchor="middle" font-family="-apple-system, system-ui, sans-serif" font-size="40" font-weight="600" fill="#185FA5">B</text><line x1="360.0" y1="470.0" x2="360.0" y2="540.0" stroke="#993C1D" stroke-width="7" stroke-linecap="round" marker-end="url(#mh)"/><line x1="670.0" y1="560.0" x2="670.0" y2="490.0" stroke="#185FA5" stroke-width="7" stroke-linecap="round" marker-end="url(#mh)"/><g><line x1="506.8" y1="504.3" x2="490.4" y2="492.8" stroke="#A32D2D" stroke-width="6" stroke-linecap="round"/><line x1="511.6" y1="500.6" x2="504.7" y2="481.8" stroke="#A32D2D" stroke-width="6" stroke-linecap="round"/><line x1="518.4" y1="500.6" x2="525.3" y2="481.8" stroke="#A32D2D" stroke-width="6" stroke-linecap="round"/><line x1="523.2" y1="504.3" x2="539.6" y2="492.8" stroke="#A32D2D" stroke-width="6" stroke-linecap="round"/><line x1="505.6" y1="513.4" x2="486.8" y2="520.3" stroke="#A32D2D" stroke-width="6" stroke-linecap="round"/><line x1="524.4" y1="513.4" x2="543.2" y2="520.3" stroke="#A32D2D" stroke-width="6" stroke-linecap="round"/></g><text x="56" y="980" text-anchor="start" font-family="-apple-system, system-ui, sans-serif" font-size="56" font-weight="500" fill="#9C9A92">8</text></svg>