<svg xmlns="http://www.w3.org/2000/svg" width="1024" height="1024" viewBox="0 0 1024 1024" role="img" aria-label="Diagram 2 — Sideswipe (same direction)"><title>Diagram 2 — Sideswipe (same direction)</title><desc>Two cars travelling the same direction; Car B drifts into the side of Car A.</desc><defs><marker id="mh" viewBox="0 0 10 10" refX="8" refY="5" markerWidth="6.5" markerHeight="6.5" orient="auto-start-reverse"><path d="M2 1L8 5L2 9" fill="none" stroke="context-stroke" stroke-width="1.6" stroke-linecap="round" stroke-linejoin="round"/></marker></defs><rect x="0" y="0" width="1024" height="1024" fill="#FFFFFF"/><line x1="512" y1="40" x2="512" y2="984" stroke="#E2E0D7" stroke-width="5" stroke-dasharray="22 26" stroke-linecap="round"/><g transform="rotate(0 420 512)"><rect x="361.0" y="399.0" width="118" height="226" rx="34" fill="#F0997B" stroke="#993C1D" stroke-width="5"/><rect x="353.0" y="443.0" width="14" height="24" rx="6" fill="#993C1D"/><rect x="473.0" y="443.0" width="14" height="24" rx="6" fill="#993C1D"/><rect x="353.0" y="557.0" width="14" height="24" rx="6" fill="#993C1D"/><rect x="473.0" y="557.0" width="14" height="24" rx="6" fill="#993C1D"/><rect x="390.0" y="421.0" width="60" height="55.2" rx="14" fill="#FAECE7" stroke="#993C1D" stroke-width="3"/></g><g transform="rotate(350 610 540)"><rect x="551.0" y="427.0" width="118" height="226" rx="34" fill="#85B7EB" stroke="#185FA5" stroke-width="5"/><rect x="543.0" y="471.0" width="14" height="24" rx="6" fill="#185FA5"/><rect x="663.0" y="471.0" width="14" height="24" rx="6" fill="#185FA5"/><rect x="543.0" y="585.0" width="14" height="24" rx="6" fill="#185FA5"/><rect x="663.0" y="585.0" width="14" height="24" rx="6" fill="#185FA5"/><rect x="580.0" y="449.0" width="60" height="55.2" rx="14" fill="#E6F1FB" stroke="#185FA5" stroke-width="3"/></g><text x="420.0" y="350.0" text-anchor="middle" font-family="-apple-system, system-ui, sans-serif" font-size="40" font-weight="600" fill="#993C1D">A</text><text x="660.0" y="720.0" text-anchor="start" font-family="-apple-system, system-ui, sans-serif" font-size="40" font-weight="600" fill="#185FA5">B</text><line x1="420.0" y1="390.0" x2="420.0" y2="320.0" stroke="#993C1D" stroke-width="7" stroke-linecap="round" marker-end="url(#mh)"/><line x1="575.0" y1="420.0" x2="525.0" y2="365.0" stroke="#185FA5" stroke-width="7" stroke-linecap="round" marker-end="url(#mh)"/><g><line x1="491.8" y1="469.3" x2="475.4" y2="457.8" stroke="#A32D2D" stroke-width="6" stroke-linecap="round"/><line x1="496.6" y1="465.6" x2="489.7" y2="446.8" stroke="#A32D2D" stroke-width="6" stroke-linecap="round"/><line x1="503.4" y1="465.6" x2="510.3" y2="446.8" stroke="#A32D2D" stroke-width="6" stroke-linecap="round"/><line x1="508.2" y1="469.3" x2="524.6" y2="457.8" stroke="#A32D2D" stroke-width="6" stroke-linecap="round"/><line x1="490.6" y1="478.4" x2="471.8" y2="485.3" stroke="#A32D2D" stroke-width="6" stroke-linecap="round"/><line x1="509.4" y1="478.4" x2="528.2" y2="485.3" stroke="#A32D2D" stroke-width="6" stroke-linecap="round"/></g><text x="56" y="980" text-anchor="start" font-family="-apple-system, system-ui, sans-serif" font-size="56" font-weight="500" fill="#9C9A92">2</text></svg>