<svg xmlns="http://www.w3.org/2000/svg" width="1024" height="1024" viewBox="0 0 1024 1024" role="img" aria-label="Diagram 4 — Right angle (T-bone)"><title>Diagram 4 — Right angle (T-bone)</title><desc>Car A enters the intersection from the left and strikes the side of Car B at ninety degrees.</desc><defs><marker id="mh" viewBox="0 0 10 10" refX="8" refY="5" markerWidth="6.5" markerHeight="6.5" orient="auto-start-reverse"><path d="M2 1L8 5L2 9" fill="none" stroke="context-stroke" stroke-width="1.6" stroke-linecap="round" stroke-linejoin="round"/></marker></defs><rect x="0" y="0" width="1024" height="1024" fill="#FFFFFF"/><line x1="512" y1="40" x2="512" y2="984" stroke="#E2E0D7" stroke-width="5" stroke-dasharray="22 26" stroke-linecap="round"/><line x1="40" y1="512" x2="984" y2="512" stroke="#E2E0D7" stroke-width="5" stroke-dasharray="22 26" stroke-linecap="round"/><g transform="rotate(0 512 360)"><rect x="453.0" y="247.0" width="118" height="226" rx="34" fill="#85B7EB" stroke="#185FA5" stroke-width="5"/><rect x="445.0" y="291.0" width="14" height="24" rx="6" fill="#185FA5"/><rect x="565.0" y="291.0" width="14" height="24" rx="6" fill="#185FA5"/><rect x="445.0" y="405.0" width="14" height="24" rx="6" fill="#185FA5"/><rect x="565.0" y="405.0" width="14" height="24" rx="6" fill="#185FA5"/><rect x="482.0" y="269.0" width="60" height="55.2" rx="14" fill="#E6F1FB" stroke="#185FA5" stroke-width="3"/></g><g transform="rotate(90 300 512)"><rect x="241.0" y="399.0" width="118" height="226" rx="34" fill="#F0997B" stroke="#993C1D" stroke-width="5"/><rect x="233.0" y="443.0" width="14" height="24" rx="6" fill="#993C1D"/><rect x="353.0" y="443.0" width="14" height="24" rx="6" fill="#993C1D"/><rect x="233.0" y="557.0" width="14" height="24" rx="6" fill="#993C1D"/><rect x="353.0" y="557.0" width="14" height="24" rx="6" fill="#993C1D"/><rect x="270.0" y="421.0" width="60" height="55.2" rx="14" fill="#FAECE7" stroke="#993C1D" stroke-width="3"/></g><text x="640.0" y="360.0" text-anchor="start" font-family="-apple-system, system-ui, sans-serif" font-size="40" font-weight="600" fill="#185FA5">B</text><text x="180.0" y="470.0" text-anchor="start" font-family="-apple-system, system-ui, sans-serif" font-size="40" font-weight="600" fill="#993C1D">A</text><line x1="512.0" y1="200.0" x2="512.0" y2="250.0" stroke="#185FA5" stroke-width="7" stroke-linecap="round" marker-end="url(#mh)"/><line x1="380.0" y1="512.0" x2="440.0" y2="512.0" stroke="#993C1D" stroke-width="7" stroke-linecap="round" marker-end="url(#mh)"/><g><line x1="469.8" y1="464.3" x2="453.4" y2="452.8" stroke="#A32D2D" stroke-width="6" stroke-linecap="round"/><line x1="474.6" y1="460.6" x2="467.7" y2="441.8" stroke="#A32D2D" stroke-width="6" stroke-linecap="round"/><line x1="481.4" y1="460.6" x2="488.3" y2="441.8" stroke="#A32D2D" stroke-width="6" stroke-linecap="round"/><line x1="486.2" y1="464.3" x2="502.6" y2="452.8" stroke="#A32D2D" stroke-width="6" stroke-linecap="round"/><line x1="468.6" y1="473.4" x2="449.8" y2="480.3" stroke="#A32D2D" stroke-width="6" stroke-linecap="round"/><line x1="487.4" y1="473.4" x2="506.2" y2="480.3" stroke="#A32D2D" stroke-width="6" stroke-linecap="round"/></g><text x="56" y="980" text-anchor="start" font-family="-apple-system, system-ui, sans-serif" font-size="56" font-weight="500" fill="#9C9A92">4</text></svg>