<svg xmlns="http://www.w3.org/2000/svg" width="1024" height="1024" viewBox="0 0 1024 1024" role="img" aria-label="Diagram 5 — Right turn"><title>Diagram 5 — Right turn</title><desc>Car A turns right while Car B goes straight; impact at Car A front-right.</desc><defs><marker id="mh" viewBox="0 0 10 10" refX="8" refY="5" markerWidth="6.5" markerHeight="6.5" orient="auto-start-reverse"><path d="M2 1L8 5L2 9" fill="none" stroke="context-stroke" stroke-width="1.6" stroke-linecap="round" stroke-linejoin="round"/></marker></defs><rect x="0" y="0" width="1024" height="1024" fill="#FFFFFF"/><line x1="512" y1="40" x2="512" y2="984" stroke="#E2E0D7" stroke-width="5" stroke-dasharray="22 26" stroke-linecap="round"/><line x1="40" y1="512" x2="984" y2="512" stroke="#E2E0D7" stroke-width="5" stroke-dasharray="22 26" stroke-linecap="round"/><g transform="rotate(45 470 470)"><rect x="411.0" y="357.0" width="118" height="226" rx="34" fill="#F0997B" stroke="#993C1D" stroke-width="5"/><rect x="403.0" y="401.0" width="14" height="24" rx="6" fill="#993C1D"/><rect x="523.0" y="401.0" width="14" height="24" rx="6" fill="#993C1D"/><rect x="403.0" y="515.0" width="14" height="24" rx="6" fill="#993C1D"/><rect x="523.0" y="515.0" width="14" height="24" rx="6" fill="#993C1D"/><rect x="440.0" y="379.0" width="60" height="55.2" rx="14" fill="#FAECE7" stroke="#993C1D" stroke-width="3"/></g><g transform="rotate(0 560 760)"><rect x="501.0" y="647.0" width="118" height="226" rx="34" fill="#85B7EB" stroke="#185FA5" stroke-width="5"/><rect x="493.0" y="691.0" width="14" height="24" rx="6" fill="#185FA5"/><rect x="613.0" y="691.0" width="14" height="24" rx="6" fill="#185FA5"/><rect x="493.0" y="805.0" width="14" height="24" rx="6" fill="#185FA5"/><rect x="613.0" y="805.0" width="14" height="24" rx="6" fill="#185FA5"/><rect x="530.0" y="669.0" width="60" height="55.2" rx="14" fill="#E6F1FB" stroke="#185FA5" stroke-width="3"/></g><text x="420.0" y="360.0" text-anchor="end" font-family="-apple-system, system-ui, sans-serif" font-size="40" font-weight="600" fill="#993C1D">A</text><text x="700.0" y="760.0" text-anchor="start" font-family="-apple-system, system-ui, sans-serif" font-size="40" font-weight="600" fill="#185FA5">B</text><line x1="560.0" y1="640.0" x2="560.0" y2="560.0" stroke="#185FA5" stroke-width="7" stroke-linecap="round" marker-end="url(#mh)"/><line x1="420.0" y1="500.0" x2="480.0" y2="420.0" stroke="#993C1D" stroke-width="7" stroke-linecap="round" marker-end="url(#mh)"/><g><line x1="511.8" y1="514.3" x2="495.4" y2="502.8" stroke="#A32D2D" stroke-width="6" stroke-linecap="round"/><line x1="516.6" y1="510.6" x2="509.7" y2="491.8" stroke="#A32D2D" stroke-width="6" stroke-linecap="round"/><line x1="523.4" y1="510.6" x2="530.3" y2="491.8" stroke="#A32D2D" stroke-width="6" stroke-linecap="round"/><line x1="528.2" y1="514.3" x2="544.6" y2="502.8" stroke="#A32D2D" stroke-width="6" stroke-linecap="round"/><line x1="510.6" y1="523.4" x2="491.8" y2="530.3" stroke="#A32D2D" stroke-width="6" stroke-linecap="round"/><line x1="529.4" y1="523.4" x2="548.2" y2="530.3" stroke="#A32D2D" stroke-width="6" stroke-linecap="round"/></g><text x="56" y="980" text-anchor="start" font-family="-apple-system, system-ui, sans-serif" font-size="56" font-weight="500" fill="#9C9A92">5</text></svg>