<svg xmlns="http://www.w3.org/2000/svg" width="1024" height="1024" viewBox="0 0 1024 1024" role="img" aria-label="Diagram 7 — Head on"><title>Diagram 7 — Head on</title><desc>Cars travel in opposite directions and collide front to front.</desc><defs><marker id="mh" viewBox="0 0 10 10" refX="8" refY="5" markerWidth="6.5" markerHeight="6.5" orient="auto-start-reverse"><path d="M2 1L8 5L2 9" fill="none" stroke="context-stroke" stroke-width="1.6" stroke-linecap="round" stroke-linejoin="round"/></marker></defs><rect x="0" y="0" width="1024" height="1024" fill="#FFFFFF"/><line x1="512" y1="40" x2="512" y2="984" stroke="#E2E0D7" stroke-width="5" stroke-dasharray="22 26" stroke-linecap="round"/><g transform="rotate(180 512 380)"><rect x="453.0" y="267.0" width="118" height="226" rx="34" fill="#F0997B" stroke="#993C1D" stroke-width="5"/><rect x="445.0" y="311.0" width="14" height="24" rx="6" fill="#993C1D"/><rect x="565.0" y="311.0" width="14" height="24" rx="6" fill="#993C1D"/><rect x="445.0" y="425.0" width="14" height="24" rx="6" fill="#993C1D"/><rect x="565.0" y="425.0" width="14" height="24" rx="6" fill="#993C1D"/><rect x="482.0" y="289.0" width="60" height="55.2" rx="14" fill="#FAECE7" stroke="#993C1D" stroke-width="3"/></g><g transform="rotate(0 512 700)"><rect x="453.0" y="587.0" width="118" height="226" rx="34" fill="#85B7EB" stroke="#185FA5" stroke-width="5"/><rect x="445.0" y="631.0" width="14" height="24" rx="6" fill="#185FA5"/><rect x="565.0" y="631.0" width="14" height="24" rx="6" fill="#185FA5"/><rect x="445.0" y="745.0" width="14" height="24" rx="6" fill="#185FA5"/><rect x="565.0" y="745.0" width="14" height="24" rx="6" fill="#185FA5"/><rect x="482.0" y="609.0" width="60" height="55.2" rx="14" fill="#E6F1FB" stroke="#185FA5" stroke-width="3"/></g><text x="660.0" y="380.0" text-anchor="start" font-family="-apple-system, system-ui, sans-serif" font-size="40" font-weight="600" fill="#993C1D">A</text><text x="660.0" y="700.0" text-anchor="start" font-family="-apple-system, system-ui, sans-serif" font-size="40" font-weight="600" fill="#185FA5">B</text><line x1="410.0" y1="450.0" x2="410.0" y2="540.0" stroke="#993C1D" stroke-width="7" stroke-linecap="round" marker-end="url(#mh)"/><line x1="614.0" y1="630.0" x2="614.0" y2="540.0" stroke="#185FA5" stroke-width="7" stroke-linecap="round" marker-end="url(#mh)"/><g><line x1="503.8" y1="534.3" x2="487.4" y2="522.8" stroke="#A32D2D" stroke-width="6" stroke-linecap="round"/><line x1="508.6" y1="530.6" x2="501.7" y2="511.8" stroke="#A32D2D" stroke-width="6" stroke-linecap="round"/><line x1="515.4" y1="530.6" x2="522.3" y2="511.8" stroke="#A32D2D" stroke-width="6" stroke-linecap="round"/><line x1="520.2" y1="534.3" x2="536.6" y2="522.8" stroke="#A32D2D" stroke-width="6" stroke-linecap="round"/><line x1="502.6" y1="543.4" x2="483.8" y2="550.3" stroke="#A32D2D" stroke-width="6" stroke-linecap="round"/><line x1="521.4" y1="543.4" x2="540.2" y2="550.3" stroke="#A32D2D" stroke-width="6" stroke-linecap="round"/></g><text x="56" y="980" text-anchor="start" font-family="-apple-system, system-ui, sans-serif" font-size="56" font-weight="500" fill="#9C9A92">7</text></svg>